<?xml version="1.0" standalone="no"?>
<!DOCTYPE svg PUBLIC "-//W3C//DTD SVG 20010904//EN"
 "http://www.w3.org/TR/2001/REC-SVG-20010904/DTD/svg10.dtd">
<svg version="1.0" xmlns="http://www.w3.org/2000/svg"
 width="920.000000pt" height="980.000000pt" viewBox="0 0 920.000000 980.000000"
 preserveAspectRatio="xMidYMid meet">

<g transform="translate(0.000000,980.000000) scale(0.100000,-0.100000)"
fill="#000000" stroke="none">
<path d="M6442 9789 c-319 -41 -660 -276 -786 -542 -57 -122 -71 -191 -71
-367 1 -233 46 -422 194 -802 l10 -27 -132 45 c-223 77 -400 151 -972 409 -93
42 -231 101 -305 132 -74 30 -183 82 -243 114 -146 82 -226 111 -307 112 -87
1 -50 14 -605 -215 -623 -257 -1305 -567 -1421 -645 -223 -152 -277 -347 -162
-583 95 -195 326 -288 586 -234 112 23 517 196 867 372 323 161 457 198 685
189 160 -6 237 -25 387 -97 136 -65 234 -129 309 -204 103 -103 107 -176 19
-288 -24 -30 -204 -203 -401 -384 -517 -475 -724 -685 -927 -940 -172 -215
-236 -357 -245 -537 -3 -64 0 -132 7 -170 17 -85 88 -228 153 -307 56 -67 278
-276 618 -581 796 -713 840 -756 840 -809 0 -29 -37 -67 -82 -85 -23 -9 -128
-34 -233 -55 -104 -21 -320 -69 -480 -105 -159 -36 -369 -84 -465 -105 -203
-44 -269 -67 -346 -119 -182 -122 -285 -310 -253 -462 37 -176 202 -330 414
-384 121 -31 213 -23 505 45 735 171 1331 304 1898 426 167 36 326 74 355 84
309 117 441 420 302 695 -15 29 -163 226 -330 439 -413 525 -660 869 -726
1011 -88 188 -71 302 70 477 71 88 509 521 587 579 160 122 202 92 447 -318
123 -205 175 -273 245 -323 102 -73 177 -83 435 -54 302 33 643 98 1092 210
369 92 489 125 520 144 167 103 229 380 130 586 -47 98 -122 174 -202 204 -74
29 -191 36 -320 20 -54 -6 -165 -15 -248 -19 -161 -9 -157 -7 -449 -115 -185
-68 -279 -59 -385 40 -144 133 -243 307 -375 658 -29 78 -67 169 -85 204 -44
86 -155 249 -292 427 -107 138 -249 336 -249 347 0 3 44 -10 98 -28 500 -167
944 -91 1229 210 424 446 373 1153 -109 1517 -226 170 -513 245 -796 208z"/>
<path d="M773 6458 c-78 -8 -139 -36 -179 -79 -87 -94 -69 -272 36 -362 90
-77 212 -94 740 -100 466 -6 925 8 1063 32 249 44 398 117 565 275 66 63 202
221 202 236 0 8 -2355 6 -2427 -2z"/>
<path d="M1275 5449 c-230 -8 -485 -33 -564 -55 -113 -32 -183 -109 -183 -203
0 -104 59 -208 146 -254 41 -22 45 -22 711 -28 369 -4 742 -10 831 -14 192 -9
224 0 255 69 31 69 21 231 -18 311 -26 51 -84 104 -132 119 -55 18 -310 43
-506 51 -276 11 -343 11 -540 4z"/>
<path d="M779 4327 c-78 -11 -175 -61 -204 -105 -48 -75 -55 -171 -18 -263 23
-59 90 -112 175 -140 l73 -24 1285 3 c707 1 1301 5 1320 8 84 14 102 61 51
130 -49 67 -263 270 -329 312 -35 23 -93 51 -129 63 l-67 22 -1051 1 c-579 1
-1076 -2 -1106 -7z"/>
<path d="M5510 2444 c-420 -56 -706 -140 -880 -257 -139 -94 -157 -119 -600
-822 -128 -203 -278 -439 -332 -523 -55 -84 -110 -177 -123 -207 -85 -192 -26
-388 158 -519 168 -120 335 -144 492 -72 105 48 140 91 691 846 306 419 947
1309 977 1357 80 128 47 185 -125 213 -35 5 -67 9 -73 9 -5 -1 -89 -12 -185
-25z"/>
</g>
</svg>
